<?xml version="1.0" encoding="iso-8859-1"?>
<!-- Generator: Adobe Illustrator 29.5.1, SVG Export Plug-In . SVG Version: 9.03 Build 0)  -->
<svg version="1.1" id="Layer_1" xmlns="http://www.w3.org/2000/svg" xmlns:xlink="http://www.w3.org/1999/xlink" x="0px" y="0px"
	 width="3000px" height="3000px" viewBox="0 0 3000 3000" enable-background="new 0 0 3000 3000" xml:space="preserve">
<rect x="4222.894" y="1444.784" fill="#39B54A" width="728.073" height="384.899"/>
<rect x="345.641" y="1285.497" fill="#39B54A" width="192.811" height="392.625"/>
<g>
	<path fill="#39B54A" d="M1534.184,1496.932c-1.096,240.567-366.748,240.422-367.794,0"/>
	<rect x="1166.39" y="1289.065" fill="#39B54A" width="367.794" height="207.867"/>
</g>
<rect x="2468.524" y="1288.983" fill="#39B54A" width="185.834" height="388.247"/>
<g>
	<path fill="#39B54A" d="M593.864,1285.497c88.295,0,159.872,71.577,159.872,159.872s-71.577,159.872-159.872,159.872"/>
	
		<rect x="343.636" y="1355.014" transform="matrix(6.123234e-17 -1 1 6.123234e-17 -941.8609 1948.8771)" fill="#39B54A" width="319.745" height="180.711"/>
</g>
<g>
	<g>
		
			<rect x="2138.546" y="1172.568" transform="matrix(-1.836970e-16 1 -1 -1.836970e-16 3621.73 -849.3753)" fill="#39B54A" width="194.013" height="427.219"/>
	</g>
	<g>
		
			<rect x="2138.546" y="1290.04" transform="matrix(-1 -2.954856e-07 2.954856e-07 -1 4471.105 2966.3687)" fill="#39B54A" width="194.013" height="386.288"/>
	</g>
</g>
<g>
	<path fill="#39B54A" d="M1659.603,1482.457c-126.844-0.578-126.768-193.307,0-193.858"/>
	<rect x="1659.603" y="1288.599" fill="#39B54A" width="109.602" height="193.858"/>
	<rect x="1769.206" y="1288.6" fill="#39B54A" width="231.989" height="193.858"/>
	<g>
		<path fill="#39B54A" d="M1906.091,1478.321c126.844,0.599,126.768,200.462,0,201.033"/>
		<rect x="1796.488" y="1478.321" fill="#39B54A" width="109.602" height="201.033"/>
		<rect x="1564.498" y="1478.32" fill="#39B54A" width="231.989" height="201.033"/>
	</g>
</g>
<g>
	<path fill="#39B54A" d="M1144.398,1497.042c-1.096,240.567-366.748,240.422-367.794,0"/>
	<rect x="776.604" y="1289.175" fill="#39B54A" width="367.794" height="207.867"/>
</g>
<path fill="#39B54A" d="M3962.008,1365.272h-115.474c-20.812,0-37.684-16.872-37.684-37.684v-313.246
	c0-20.812,16.872-37.684,37.684-37.684h115.474c20.812,0,37.684,16.872,37.684,37.684v313.246
	C3999.692,1348.4,3982.821,1365.272,3962.008,1365.272z"/>
<g>
	<path fill="#39B54A" d="M4985.251,1185.932c-1.084,238.11-363.001,237.967-364.036,0"/>
	<rect x="4621.215" y="980.189" fill="#39B54A" width="364.037" height="205.743"/>
</g>
<g>
	<path fill="#39B54A" d="M4054.537,976.657c87.393,0,158.239,70.846,158.239,158.239c0,87.393-70.846,158.239-158.239,158.239"/>
	
		<rect x="3806.865" y="1045.464" transform="matrix(6.123234e-17 -1 1 6.123234e-17 2830.208 5100.001)" fill="#39B54A" width="316.478" height="178.865"/>
</g>
<g>
	<path fill="#39B54A" d="M5112.665,1158.894c-125.548-0.572-125.473-191.332,0-191.878V1158.894z"/>
	<rect x="5112.665" y="967.017" fill="#39B54A" width="108.483" height="191.878"/>
	<path fill="#39B54A" d="M5450.768,1137.079V988.833c0-12.049-12.075-21.816-26.97-21.816l-229.922,0
		c-14.895,0-26.97,9.767-26.97,21.816l0,148.245c0,12.049,12.075,21.816,26.97,21.816l229.922,0
		C5438.693,1158.895,5450.768,1149.127,5450.768,1137.079z"/>
</g>
<g>
	<path fill="#39B54A" d="M5356.635,1173.331c125.548,0.538,125.473,179.936,0,180.449"/>
	<rect x="5248.152" y="1173.331" fill="#39B54A" width="108.483" height="180.449"/>
	<path fill="#39B54A" d="M5018.532,1189.248v148.615c0,8.791,8.81,15.917,19.677,15.917l244.508,0
		c10.868,0,19.677-7.126,19.677-15.917v-148.615c0-8.791-8.81-15.917-19.677-15.917h-244.508
		C5027.341,1173.331,5018.532,1180.457,5018.532,1189.248z"/>
</g>
<g>
	<path fill="#39B54A" d="M4599.447,1186.042c-1.084,238.11-363.001,237.967-364.037,0"/>
	<rect x="4235.411" y="980.299" fill="#39B54A" width="364.037" height="205.743"/>
</g>
<path fill="#39B54A" d="M6089.608,1350.941h-128.018c-15.441,0-27.959-12.518-27.959-27.959V994.806
	c0-15.442,12.518-27.959,27.959-27.959h128.018c15.441,0,27.959,12.518,27.959,27.959v328.176
	C6117.567,1338.424,6105.05,1350.941,6089.608,1350.941z"/>
<g>
	<g>
		<path fill="#39B54A" d="M5480.772,1124.22v-122.435c0-19.193,15.559-34.752,34.752-34.752h353.351
			c19.193,0,34.752,15.559,34.752,34.752v122.435c0,19.193-15.559,34.752-34.752,34.752h-353.351
			C5496.331,1158.971,5480.772,1143.412,5480.772,1124.22z"/>
	</g>
	<g>
		<path fill="#39B54A" d="M5630.936,967.893l122.528,0c19.193,0,34.752,15.559,34.752,34.752v312.654
			c0,19.193-15.559,34.752-34.752,34.752l-122.528,0c-19.193,0-34.752-15.559-34.752-34.752l0-312.654
			C5596.184,983.452,5611.743,967.893,5630.936,967.893z"/>
	</g>
</g>
<g>
	<path fill="#FFFFFF" d="M4586.931,1603.861c-0.928,193.045-310.659,192.929-311.545,0"/>
	<rect x="4275.386" y="1437.057" fill="#FFFFFF" width="311.544" height="166.804"/>
</g>
<g>
	<path fill="#FFFFFF" d="M4867.122,1549.37c-0.625,129.982-209.173,129.903-209.77,0"/>
	<rect x="4657.352" y="1437.057" fill="#FFFFFF" width="209.77" height="112.313"/>
</g>
<rect x="3795.645" y="1437.057" fill="#39B54A" width="192.811" height="392.625"/>
<path fill="#39B54A" d="M4043.867,1437.057c88.295,0,159.873,71.577,159.873,159.872c0,88.295-71.578,159.872-159.873,159.872"/>
<rect x="3793.639" y="1506.574" transform="matrix(6.123234e-17 -1 1 6.123234e-17 2356.582 5550.4414)" fill="#39B54A" width="319.745" height="180.711"/>
<g>
	<g>
		<path fill="#39B54A" d="M5317.677,1646.395c128.821,0.552,128.743,184.625,0,185.152"/>
		<rect x="5206.367" y="1646.395" fill="#39B54A" width="111.31" height="185.152"/>
	</g>
	<g>
		<path fill="#39B54A" d="M5095.056,1831.547c-128.821-0.552-128.743-184.625,0-185.152"/>
		<rect x="5095.056" y="1646.395" fill="#39B54A" width="111.31" height="185.152"/>
	</g>
</g>
<g>
	<path fill="#39B54A" d="M5350.375,1444.784c133.898,0.573,133.817,191.902,0,192.449"/>
	<rect x="5234.677" y="1444.784" fill="#39B54A" width="115.697" height="192.449"/>
</g>
<g>
	<path fill="#39B54A" d="M5118.98,1637.233c-133.898-0.573-133.817-191.902,0-192.449"/>
	<rect x="5118.98" y="1444.784" fill="#39B54A" width="115.697" height="192.449"/>
</g>
<g>
	<g>
		
			<rect x="5593.464" y="1316.947" transform="matrix(-1.836970e-16 1 -1 -1.836970e-16 7226.5615 -4157.8374)" fill="#39B54A" width="197.47" height="434.831"/>
	</g>
	<g>
		
			<rect x="5593.464" y="1436.511" transform="matrix(-1 -2.954856e-07 2.954856e-07 -1 11384.3984 3266.1956)" fill="#39B54A" width="197.47" height="393.171"/>
	</g>
</g>
<g>
	<g>
		<path fill="#39B54A" d="M5959.115,1528.276c0.524-122.39,175.408-122.316,175.909,0"/>
		<rect x="5959.115" y="1528.276" fill="#39B54A" width="175.909" height="105.753"/>
	</g>
	<g>
		<path fill="#39B54A" d="M6135.024,1739.782c-0.524,122.39-175.409,122.316-175.909,0"/>
		<rect x="5959.115" y="1634.029" fill="#39B54A" width="175.909" height="105.753"/>
	</g>
</g>
<g>
	<rect x="3978.951" y="1965.251" fill="#39B54A" width="136.518" height="277.994"/>
	<path fill="#39B54A" d="M4154.702,1965.251c62.517,0,113.196,50.68,113.196,113.196c0,62.516-50.68,113.196-113.196,113.196"/>
	
		<rect x="3977.531" y="2014.472" transform="matrix(6.123234e-17 -1 1 6.123234e-17 2012.2797 6169.1743)" fill="#39B54A" width="226.392" height="127.951"/>
	<rect x="3795.645" y="1965.251" fill="#39B54A" width="323.35" height="277.994"/>
	<rect x="4281.34" y="1965.251" fill="#39B54A" width="319.602" height="277.994"/>
	<g>
		<path fill="#39B54A" d="M4732.62,2114.092c-0.785,172.256-262.606,172.153-263.355,0"/>
		<rect x="4469.264" y="1965.251" fill="#39B54A" width="263.356" height="148.841"/>
	</g>
	<rect x="4755.087" y="1965.251" fill="#39B54A" width="319.602" height="277.994"/>
	<g>
		<path fill="#39B54A" d="M5206.367,2114.092c-0.785,172.256-262.607,172.153-263.356,0"/>
		<rect x="4943.011" y="1965.251" fill="#39B54A" width="263.356" height="148.841"/>
	</g>
</g>
<rect x="3196.829" y="-2075.519" fill="#39B54A" width="868.056" height="1767.637"/>
<g>
	<path fill="#39B54A" d="M4314.349-2075.519c397.513,0,719.761,322.248,719.761,719.761s-322.248,719.761-719.761,719.761"/>
	
		<rect x="3187.799" y="-1762.547" transform="matrix(6.123234e-17 -1 1 6.123234e-17 5263.3174 2551.8022)" fill="#39B54A" width="1439.522" height="813.578"/>
</g>
</svg>
